<svg width="9" height="10" viewBox="0 0 9 10" fill="none" xmlns="http://www.w3.org/2000/svg">
<path fill-rule="evenodd" clip-rule="evenodd" d="M6.11464 4.89872H7.30024V8.45762H6.11464V4.89872ZM3.74134 3.31863H5.32354V8.45762H3.74134V3.31863ZM1.76464 4.89872H2.95024V8.45762H1.76464V4.89872ZM6.11464 3.31863H8.09134V4.10974H6.11464V3.31863ZM0.973542 3.31863H2.95024V4.10974H0.973542V3.31863ZM5.02661 2.52753C5.23659 1.62402 6.90363 1.47768 6.90363 2.13304C6.90363 2.55511 6.35643 2.52965 6.16343 2.52753C5.7859 2.52541 5.40414 2.52753 5.02661 2.52753ZM2.15913 2.13304C2.15913 1.46283 3.83254 1.64947 4.03827 2.52753C3.77952 2.52753 2.58544 2.56995 2.40516 2.48087C2.3076 2.43209 2.15913 2.2709 2.15913 2.13304ZM1.36803 2.03336L1.41893 2.52753C-0.0254102 2.52753 0.18244 2.28151 0.18244 4.50423C0.18244 4.97507 0.649042 4.89872 0.973542 4.89872V8.85423C0.973542 9.09177 1.13049 9.24872 1.36803 9.24872H7.69473C7.93439 9.24872 8.09134 9.09177 8.09134 8.85423V4.89872C9.05211 4.89872 8.88032 4.94326 8.88032 2.92202C8.88032 2.38543 8.19102 2.52753 7.64595 2.52753C7.86228 1.59645 7.26418 0.945328 6.60882 0.945328C5.99163 0.945328 5.65441 0.890183 5.1263 1.19347C4.84634 1.35679 4.75938 1.53494 4.53244 1.68765C4.26308 1.50737 3.89404 0.945328 3.0987 0.945328H2.45606C1.91311 0.945328 1.36803 1.4904 1.36803 2.03336Z" fill="#3E7D86"/>
</svg>
