<svg width="218" height="49" viewBox="0 0 218 49" fill="none" xmlns="http://www.w3.org/2000/svg">
<g clip-path="url(#clip0_7_3)">
<path fill-rule="evenodd" clip-rule="evenodd" d="M1.88778 11.3554C1.18139 16.3756 2.62403 18.6045 4.54948 21.9743C5.5559 23.7345 6.43852 24.7482 7.32624 26.0063C8.97059 28.3385 11.6243 30.7689 13.7944 32.6368C16.419 34.8955 22.5027 38.8991 25.645 40.5022C28.7145 42.0688 33.5908 43.8211 34.82 44.4614C36.6996 45.4409 43.8581 47.0257 44.7109 47.6355C40.1995 48.1558 18.7989 45.6795 13.6852 44.5742C11.7641 44.1587 5.87414 43.3386 4.91287 41.9357C4.98569 41.7188 4.60555 41.2022 6.62568 40.77C8.59846 40.3486 13.7129 39.936 14.3122 39.5089C12.1588 39.4325 5.0323 39.9593 2.81337 40.4927C2.32035 40.6113 1.75815 40.7801 1.29791 40.9184C0.224492 41.24 0.314793 41.1418 0.00238037 41.9131C0.36577 43.0934 0.705127 42.8649 1.91327 43.2448C12.6809 46.6299 23.2797 47.073 34.4464 48.0241C44.7786 48.9038 68.7295 51.2644 75.6805 42.7223C82.3439 34.5338 71.6782 20.6354 68.5926 19.1859C69.0063 20.0336 73.1856 23.7047 74.4411 28.9694C75.5371 33.5653 74.7477 37.7567 71.25 39.971C67.3568 42.4356 64.6827 43.3481 59.7664 44.0124C56.8142 44.4119 48.2785 44.3181 46.1463 43.3503C37.2348 41.4307 26.205 36.3137 19.0326 30.5862C17.1916 29.1163 15.8859 27.7003 14.1097 26.269C11.984 24.1784 9.32379 21.0662 7.95762 18.3832C7.74352 17.9619 7.50466 17.3478 6.96795 15.8924C6.30525 14.0929 6.29215 11.7717 6.76841 9.77421C7.65904 6.03836 10.4358 3.76221 13.5861 2.4575C19.8628 -0.140272 22.266 0.903204 24.7529 0.000167847C16.0381 0.0081722 4.2327 1.12805 1.88924 11.3554H1.88778Z" fill="#373435"/>
<path fill-rule="evenodd" clip-rule="evenodd" d="M52.4969 42.3504C54.9941 43.4929 62.0652 41.753 64.3635 40.7699C76.1129 35.7447 74.0833 27.5453 67.1629 19.6414L63.51 16.1537L62.9085 18.5593C62.5859 20.647 63.719 20.492 66.1863 24.2635C67.1315 25.7087 67.7629 26.5615 68.2028 28.3239C68.6048 29.9328 69.0293 32.2744 68.4067 33.9801C66.7667 38.4749 62.232 40.4199 57.8101 41.4605C56.6275 41.7385 53.1895 41.948 52.4962 42.3504H52.4969Z" fill="#3E7D86"/>
<path fill-rule="evenodd" clip-rule="evenodd" d="M12.2379 21.2328C12.7433 20.0598 7.91587 11.9943 15.5674 7.38525C17.5322 6.39344 18.3274 6.14385 20.2835 5.38853L19.679 2.04344C16.6991 2.00851 11.4886 4.82386 9.41603 8.51096C7.34274 12.2002 9.51507 20.0867 12.2372 21.232L12.2379 21.2328Z" fill="#3E7D86"/>
<path d="M64.2667 2.20062L57.213 32.4156H47.3869L43.4319 13.9008L39.3953 32.4156H29.5692L22.5971 2.20062H31.2413L34.5846 22.8584L39.1106 2.20062H47.8763L52.28 22.6867L55.6233 2.20062H64.2667Z" fill="#3E7D86"/>
<path d="M95.2917 13.708H90.7162L89.3201 16.2512H86.8602L93.372 4.7249H96.0549L97.9184 16.2512H95.6682L95.2924 13.708H95.2917ZM95.0069 11.776L94.3224 7.1393L91.7765 11.776H95.0069ZM101.889 4.7249H104.252L102.883 10.9952L102.537 12.5299C102.518 12.6608 102.494 12.8304 102.462 13.0341C102.462 13.4526 102.642 13.7989 103.004 14.0725C103.367 14.3439 103.894 14.48 104.583 14.48C105.204 14.48 105.716 14.3731 106.122 14.1555C106.528 13.9408 106.841 13.6185 107.064 13.195C107.284 12.7685 107.51 12.0438 107.738 11.0243L109.059 4.72417H111.427L110.06 11.2521C109.773 12.5262 109.44 13.5006 109.067 14.1766C108.691 14.8526 108.122 15.3998 107.362 15.824C106.603 16.2483 105.638 16.46 104.475 16.46C103.085 16.46 102.018 16.1304 101.28 15.4696C100.539 14.8097 100.171 13.9619 100.171 12.9264C100.182 12.7147 100.208 12.4811 100.249 12.2315C100.273 12.0649 100.367 11.5875 100.534 10.8017L101.889 4.72417L101.889 4.7249ZM116.013 16.2512H113.642L115.653 6.65613H112.267L112.654 4.72417H121.74L121.354 6.65613H118.024L116.012 16.2512H116.013ZM121.287 11.7273C121.287 11.0462 121.389 10.3265 121.593 9.56971C121.861 8.55534 122.269 7.67851 122.817 6.93192C123.365 6.18606 124.058 5.59883 124.89 5.16368C125.725 4.73145 126.673 4.5146 127.739 4.5146C129.168 4.5146 130.319 4.95703 131.197 5.84551C132.076 6.73399 132.515 7.90918 132.515 9.37397C132.515 10.5921 132.231 11.7702 131.659 12.9075C131.087 14.0478 130.308 14.9254 129.329 15.5395C128.348 16.1537 127.239 16.46 125.998 16.46C124.924 16.46 124.022 16.2155 123.292 15.7272C122.564 15.239 122.046 14.635 121.742 13.9132C121.438 13.1913 121.285 12.4615 121.285 11.7265L121.287 11.7273ZM123.639 11.6814C123.639 12.476 123.881 13.1411 124.361 13.6752C124.845 14.2122 125.478 14.48 126.265 14.48C126.904 14.48 127.519 14.2683 128.107 13.8469C128.698 13.4227 129.184 12.7816 129.571 11.923C129.955 11.0614 130.149 10.2275 130.149 9.41181C130.149 8.50222 129.905 7.78838 129.418 7.27101C128.93 6.75291 128.309 6.49532 127.555 6.49532C126.397 6.49532 125.455 7.03743 124.728 8.11874C124.002 9.20224 123.64 10.3883 123.64 11.6814H123.639ZM137.908 12.5379L140.163 12.42C140.195 13.136 140.319 13.6192 140.534 13.8688C140.88 14.2763 141.519 14.4807 142.454 14.4807C143.229 14.4807 143.794 14.341 144.139 14.0623C144.486 13.7829 144.658 13.4482 144.658 13.0538C144.658 12.7132 144.516 12.4236 144.234 12.1871C144.035 12.0125 143.488 11.7309 142.593 11.3445C141.699 10.9559 141.047 10.6307 140.636 10.3709C140.222 10.1104 139.9 9.77273 139.664 9.35651C139.428 8.94101 139.31 8.45493 139.31 7.89972C139.31 6.9261 139.662 6.11838 140.365 5.47658C141.066 4.83551 142.084 4.51606 143.419 4.51606C144.772 4.51606 145.82 4.8326 146.56 5.46858C147.304 6.10456 147.712 6.95011 147.784 8.00377L145.513 8.10565C145.457 7.55553 145.255 7.13421 144.914 6.8395C144.576 6.54698 144.071 6.39926 143.405 6.39926C142.751 6.39926 142.283 6.51424 142.004 6.74491C141.722 6.97558 141.582 7.2681 141.582 7.61956C141.582 7.95211 141.711 8.22353 141.966 8.4411C142.223 8.66086 142.793 8.96138 143.67 9.34559C144.997 9.91972 145.84 10.384 146.203 10.7405C146.742 11.2666 147.011 11.9397 147.011 12.7664C147.011 13.7858 146.608 14.6554 145.803 15.3772C144.997 16.0991 143.878 16.4615 142.441 16.4615C141.45 16.4615 140.591 16.2948 139.863 15.9623C139.138 15.6297 138.625 15.1677 138.325 14.5775C138.027 13.9874 137.887 13.3056 137.909 12.5386L137.908 12.5379ZM144.03 2.7602L145.413 1.35944H147.269L144.93 3.72581H142.816L141.855 1.35944H143.421L144.03 2.7602ZM148.284 16.2512L150.701 4.7249H153.069L152.043 9.62429L157.371 4.7249H160.544L155.381 9.2459L159.175 16.2512H156.485L153.649 10.7616L151.391 12.7365L150.656 16.2512H148.285H148.284ZM160.676 11.7273C160.676 11.0462 160.778 10.3265 160.982 9.56971C161.251 8.55534 161.659 7.67851 162.206 6.93192C162.755 6.18606 163.447 5.59883 164.28 5.16368C165.115 4.73145 166.063 4.5146 167.128 4.5146C168.557 4.5146 169.709 4.95703 170.587 5.84551C171.465 6.73399 171.905 7.90918 171.905 9.37397C171.905 10.5921 171.62 11.7702 171.048 12.9075C170.477 14.0478 169.698 14.9254 168.718 15.5395C167.738 16.1537 166.629 16.46 165.388 16.46C164.314 16.46 163.411 16.2155 162.681 15.7272C161.954 15.239 161.435 14.635 161.131 13.9132C160.828 13.1913 160.675 12.4615 160.675 11.7265L160.676 11.7273ZM163.028 11.6814C163.028 12.476 163.27 13.1411 163.751 13.6752C164.234 14.2122 164.868 14.48 165.654 14.48C166.294 14.48 166.908 14.2683 167.497 13.8469C168.087 13.4227 168.574 12.7816 168.961 11.923C169.344 11.0614 169.538 10.2275 169.538 9.41181C169.538 8.50222 169.294 7.78838 168.808 7.27101C168.319 6.75291 167.699 6.49532 166.944 6.49532C165.787 6.49532 164.845 7.03743 164.117 8.11874C163.392 9.20224 163.03 10.3883 163.03 11.6814H163.028ZM172.531 16.2512L174.948 4.7249H177.316L175.305 14.3199H181.183L180.78 16.2519H172.53L172.531 16.2512ZM189.875 13.708H185.299L183.903 16.2512H181.443L187.955 4.7249H190.638L192.502 16.2512H190.251L189.876 13.708H189.875ZM189.59 11.776L188.906 7.1393L186.36 11.776H189.59Z" fill="#373435"/>
<path d="M92.8688 47.2171L87.3918 23.9397H92.2396L95.7046 39.9295L99.956 23.9397H105.563L109.63 40.2002L113.176 23.9397H117.91L112.297 47.2171H107.259L102.667 29.8134L98.0415 47.2171H92.8681H92.8688ZM120.058 28.0685V23.9397H124.516V28.0685H120.058ZM120.058 47.2171V30.3439H124.516V47.2171H120.058ZM138.858 41.8854L143.316 42.6335C142.746 44.2642 141.841 45.5056 140.61 46.3613C139.374 47.212 137.829 47.6398 135.98 47.6398C133.046 47.6398 130.872 46.6808 129.467 44.7626C128.356 43.2236 127.797 41.2844 127.797 38.9377C127.797 36.142 128.529 33.9473 129.988 32.3654C131.447 30.7776 133.296 29.9866 135.53 29.9866C138.035 29.9866 140.015 30.8154 141.468 32.4738C142.916 34.1314 143.61 36.6732 143.545 40.0976H132.386C132.419 41.4197 132.776 42.4494 133.465 43.1858C134.148 43.9229 135.005 44.2911 136.025 44.2911C136.724 44.2911 137.31 44.1012 137.781 43.7221C138.258 43.343 138.617 42.7303 138.861 41.8854H138.858ZM139.119 37.3666C139.086 36.0714 138.756 35.0854 138.121 34.4138C137.487 33.7363 136.717 33.4001 135.806 33.4001C134.836 33.4001 134.033 33.7581 133.399 34.4676C132.764 35.1771 132.455 36.1471 132.466 37.3666H139.12H139.119ZM162.551 47.2171H158.093V38.6182C158.093 36.7976 157.996 35.6217 157.806 35.0905C157.61 34.5542 157.302 34.1423 156.868 33.844C156.434 33.5464 155.913 33.3994 155.306 33.3994C154.526 33.3994 153.826 33.6104 153.207 34.0332C152.584 34.456 152.161 35.0192 151.933 35.7126C151.7 36.4119 151.586 37.7014 151.586 39.5867V47.2156H147.129V30.3424H151.261V32.8187C152.741 30.9275 154.601 29.9844 156.852 29.9844C157.838 29.9844 158.744 30.1634 159.563 30.5156C160.387 30.8736 161.005 31.3233 161.423 31.8698C161.846 32.4229 162.139 33.0457 162.301 33.745C162.469 34.4436 162.551 35.4412 162.551 36.7416V47.2156V47.2171ZM176.828 41.8854L181.286 42.6335C180.717 44.2642 179.811 45.5056 178.581 46.3613C177.344 47.212 175.799 47.6398 173.95 47.6398C171.016 47.6398 168.842 46.6808 167.437 44.7626C166.326 43.2236 165.767 41.2844 165.767 38.9377C165.767 36.142 166.499 33.9473 167.959 32.3654C169.417 30.7776 171.266 29.9866 173.5 29.9866C176.006 29.9866 177.985 30.8154 179.438 32.4738C180.886 34.1314 181.58 36.6732 181.515 40.0976H170.356C170.389 41.4197 170.746 42.4494 171.435 43.1858C172.118 43.9229 172.975 44.2911 173.995 44.2911C174.694 44.2911 175.28 44.1012 175.751 43.7221C176.228 43.343 176.587 42.7303 176.831 41.8854H176.828ZM177.089 37.3666C177.056 36.0714 176.726 35.0854 176.092 34.4138C175.457 33.7363 174.687 33.4001 173.776 33.4001C172.806 33.4001 172.003 33.7581 171.369 34.4676C170.734 35.1771 170.425 36.1471 170.436 37.3666H177.09H177.089ZM189.425 47.2171H184.968V30.3439H189.1V32.7387C189.81 31.6064 190.45 30.8642 191.02 30.512C191.589 30.1598 192.234 29.9866 192.955 29.9866C193.975 29.9866 194.956 30.2682 195.9 30.8263L194.517 34.7172C193.763 34.2297 193.064 33.9859 192.418 33.9859C191.789 33.9859 191.258 34.1591 190.824 34.5003C190.39 34.8467 190.048 35.4645 189.798 36.3639C189.549 37.2633 189.424 39.1487 189.424 42.0157V47.2171H189.425Z" fill="#3E7D86"/>
<path d="M202.064 47.1676H200.924L201.025 46.6917C200.808 46.902 200.593 47.0519 200.382 47.1428C200.171 47.2331 199.934 47.2789 199.668 47.2789C199.208 47.2789 198.834 47.1217 198.549 46.8059C198.263 46.4916 198.12 46.0259 198.12 45.4088C198.12 44.6942 198.324 44.0503 198.732 43.4732C199.139 42.8962 199.678 42.6073 200.349 42.6073C200.955 42.6073 201.41 42.846 201.713 43.3248L202.212 41.0297H203.411L202.065 47.1676H202.064ZM199.286 45.3615C199.286 45.6802 199.367 45.9306 199.529 46.1103C199.692 46.2893 199.892 46.3788 200.129 46.3788C200.35 46.3788 200.555 46.3046 200.745 46.1547C200.937 46.0048 201.088 45.7748 201.202 45.4663C201.317 45.1592 201.374 44.8631 201.374 44.5793C201.374 44.2576 201.286 43.9964 201.112 43.7978C200.936 43.5991 200.735 43.4994 200.506 43.4994C200.149 43.4994 199.857 43.6952 199.627 44.0881C199.399 44.481 199.284 44.9053 199.284 45.3622L199.286 45.3615ZM203.472 46.0106H204.664L204.432 47.1676H203.24L203.472 46.0106ZM205.761 45.3215C205.761 44.4941 205.992 43.8356 206.457 43.3444C206.921 42.8525 207.532 42.6073 208.288 42.6073C208.943 42.6073 209.455 42.7885 209.824 43.1516C210.192 43.5147 210.376 44.0015 210.376 44.6164C210.376 45.3375 210.146 45.964 209.686 46.4894C209.225 47.0162 208.609 47.2797 207.837 47.2797C207.418 47.2797 207.046 47.1952 206.723 47.0279C206.4 46.8598 206.158 46.6204 205.999 46.3133C205.841 46.0048 205.761 45.6744 205.761 45.3215ZM209.184 44.457C209.184 44.1696 209.101 43.9404 208.935 43.7672C208.769 43.594 208.556 43.5074 208.295 43.5074C208.036 43.5074 207.805 43.5889 207.605 43.7505C207.405 43.912 207.249 44.1478 207.138 44.4548C207.026 44.7634 206.97 45.0479 206.97 45.3062C206.97 45.6278 207.056 45.8818 207.229 46.071C207.402 46.2595 207.619 46.3541 207.881 46.3541C208.21 46.3541 208.484 46.2114 208.708 45.9269C209.025 45.5252 209.184 45.0355 209.184 44.4578V44.457ZM211.096 46.0106H212.288L212.056 47.1676H210.864L211.096 46.0106ZM213.384 45.3215C213.384 44.4941 213.616 43.8356 214.081 43.3444C214.545 42.8525 215.156 42.6073 215.912 42.6073C216.567 42.6073 217.079 42.7885 217.448 43.1516C217.816 43.5147 218 44.0015 218 44.6164C218 45.3375 217.77 45.964 217.31 46.4894C216.849 47.0162 216.233 47.2797 215.461 47.2797C215.042 47.2797 214.67 47.1952 214.347 47.0279C214.024 46.8598 213.782 46.6204 213.623 46.3133C213.465 46.0048 213.384 45.6744 213.384 45.3215ZM216.808 44.457C216.808 44.1696 216.725 43.9404 216.559 43.7672C216.393 43.594 216.18 43.5074 215.919 43.5074C215.659 43.5074 215.429 43.5889 215.229 43.7505C215.029 43.912 214.873 44.1478 214.761 44.4548C214.65 44.7634 214.594 45.0479 214.594 45.3062C214.594 45.6278 214.68 45.8818 214.853 46.071C215.026 46.2595 215.243 46.3541 215.505 46.3541C215.834 46.3541 216.108 46.2114 216.332 45.9269C216.649 45.5252 216.808 45.0355 216.808 44.4578V44.457Z" fill="#3E7D86"/>
</g>
<defs>
<clipPath id="clip0_7_3">
<rect width="218" height="49" fill="white"/>
</clipPath>
</defs>
</svg>
