<svg width="208" height="48" viewBox="0 0 208 48" fill="none" xmlns="http://www.w3.org/2000/svg">
<path fill-rule="evenodd" clip-rule="evenodd" d="M1.79596 11.0078C1.12308 15.8743 2.49728 18.035 4.3314 21.3017C5.29007 23.008 6.13083 23.9907 6.97643 25.2103C8.54278 27.4711 11.0706 29.8272 13.1378 31.6379C15.6378 33.8275 21.4329 37.7086 24.4262 39.2626C27.3501 40.7813 31.995 42.4799 33.166 43.1007C34.9564 44.0501 41.7754 45.5865 42.5877 46.1776C38.2903 46.682 17.9048 44.2815 13.0337 43.21C11.2038 42.8072 5.59322 42.0122 4.67755 40.6522C4.74692 40.442 4.38481 39.9412 6.3091 39.5222C8.18831 39.1138 13.0601 38.7138 13.631 38.2997C11.5798 38.2257 4.79131 38.7364 2.67764 39.2534C2.20801 39.3684 1.67248 39.5321 1.23407 39.6661C0.211575 39.9779 0.297593 39.8826 0 40.6304C0.346151 41.7745 0.66941 41.553 1.82024 41.9212C12.0771 45.2028 22.1731 45.6324 32.8101 46.5543C42.6522 47.4071 65.4669 49.6955 72.0882 41.4148C78.4354 33.4769 68.2757 20.0037 65.3365 18.5986C65.7305 19.4204 69.7116 22.9791 70.9075 28.0827C71.9515 32.538 71.1996 36.6011 67.8678 38.7476C64.1593 41.1368 61.6121 42.0214 56.929 42.6654C54.1168 43.0527 45.986 42.9617 43.9549 42.0235C35.4662 40.1627 24.9596 35.2023 18.1275 29.6501C16.3738 28.2252 15.1301 26.8525 13.4381 25.465C11.4133 23.4383 8.87922 20.4213 7.57786 17.8205C7.37392 17.4121 7.14639 16.8167 6.63514 15.4059C6.00388 13.6615 5.99139 11.4113 6.44507 9.47494C7.29345 5.85341 9.93849 3.64692 12.9394 2.38214C18.9183 -0.136142 21.2075 0.875402 23.5764 0C15.275 0.00775941 4.02964 1.09337 1.79735 11.0078H1.79596Z" fill="#FEFEFE"/>
<path fill-rule="evenodd" clip-rule="evenodd" d="M50.0046 41.0543C52.3833 42.1618 59.119 40.4752 61.3083 39.5222C72.5002 34.6507 70.5669 26.7022 63.9748 19.0402L60.4953 15.6592L59.9223 17.9912C59.615 20.015 60.6943 19.8648 63.0446 23.5209C63.945 24.9218 64.5464 25.7485 64.9654 27.457C65.3483 29.0166 65.7527 31.2866 65.1596 32.9401C63.5974 37.2973 59.2778 39.1829 55.0658 40.1916C53.9392 40.4611 50.6643 40.6642 50.0039 41.0543H50.0046Z" fill="#FEFEFE"/>
<path fill-rule="evenodd" clip-rule="evenodd" d="M11.6554 20.5829C12.1368 19.4458 7.53833 11.6271 14.8269 7.15912C16.6985 6.19766 17.456 5.95571 19.3192 5.22351L18.7435 1.98078C15.9049 1.94692 10.9416 4.67612 8.96733 8.25038C6.99239 11.8268 9.06167 19.4719 11.6547 20.5822L11.6554 20.5829Z" fill="#FEFEFE"/>
<path d="M61.216 2.13306L54.4969 31.4234H45.1369L41.3695 13.4752L37.5244 31.4234H28.1645L21.5231 2.13306H29.7572L32.9419 22.1587L37.2532 2.13306H45.6031L49.7978 21.9922L52.9826 2.13306H61.216Z" fill="#FEFEFE"/>
<path d="M91.1106 13.2884H86.7522L85.4224 15.7538H83.0791L89.2821 4.58023H91.8376L93.6128 15.7538H91.4693L91.1113 13.2884H91.1106ZM90.8394 11.4156L90.1873 6.92074L87.7622 11.4156H90.8394ZM97.3948 4.58023H99.6458L98.3417 10.6587L98.0121 12.1464C97.9941 12.2733 97.9712 12.4377 97.9407 12.6352C97.9407 13.0408 98.112 13.3766 98.4575 13.6418C98.8029 13.9049 99.3045 14.0368 99.9614 14.0368C100.552 14.0368 101.041 13.9331 101.427 13.7222C101.814 13.5141 102.113 13.2016 102.325 12.7911C102.534 12.3777 102.749 11.6751 102.966 10.6869L104.225 4.57952H106.481L105.179 10.9077C104.905 12.1428 104.588 13.0874 104.232 13.7427C103.875 14.398 103.332 14.9285 102.609 15.3397C101.885 15.7509 100.967 15.9562 99.8587 15.9562C98.5338 15.9562 97.5182 15.6367 96.8148 14.9962C96.1087 14.3564 95.7584 13.5346 95.7584 12.5308C95.7688 12.3255 95.7937 12.0991 95.8326 11.8571C95.8555 11.6956 95.945 11.2329 96.1038 10.471L97.3955 4.57952L97.3948 4.58023ZM110.849 15.7538H108.59L110.506 6.45236H107.281L107.649 4.57952H116.305L115.936 6.45236H112.764L110.848 15.7538H110.849ZM115.873 11.3683C115.873 10.708 115.97 10.0104 116.164 9.27678C116.42 8.29345 116.808 7.44345 117.33 6.71971C117.852 5.99667 118.512 5.42741 119.305 5.00558C120.101 4.58657 121.004 4.37637 122.019 4.37637C123.38 4.37637 124.476 4.80525 125.313 5.66654C126.15 6.52784 126.569 7.66706 126.569 9.08703C126.569 10.2679 126.297 11.4099 125.753 12.5125C125.208 13.6178 124.466 14.4685 123.533 15.0639C122.599 15.6592 121.543 15.9562 120.361 15.9562C119.338 15.9562 118.478 15.7192 117.782 15.2459C117.089 14.7726 116.595 14.1871 116.306 13.4873C116.017 12.7876 115.871 12.08 115.871 11.3676L115.873 11.3683ZM118.113 11.3239C118.113 12.0942 118.343 12.7389 118.801 13.2567C119.262 13.7772 119.865 14.0368 120.615 14.0368C121.224 14.0368 121.809 13.8316 122.37 13.4231C122.932 13.0119 123.396 12.3904 123.764 11.558C124.13 10.7229 124.314 9.91446 124.314 9.12371C124.314 8.24196 124.082 7.54996 123.618 7.04842C123.153 6.54618 122.562 6.29647 121.843 6.29647C120.741 6.29647 119.843 6.82199 119.15 7.87021C118.459 8.92056 118.115 10.0704 118.115 11.3239H118.113ZM131.705 12.1541L133.854 12.0398C133.884 12.734 134.002 13.2023 134.207 13.4443C134.536 13.8393 135.145 14.0375 136.035 14.0375C136.774 14.0375 137.312 13.9021 137.641 13.6319C137.971 13.3611 138.135 13.0366 138.135 12.6542C138.135 12.3241 138 12.0434 137.731 11.8141C137.542 11.6448 137.02 11.3718 136.169 10.9973C135.317 10.6206 134.695 10.3053 134.304 10.0534C133.91 9.8009 133.603 9.47359 133.378 9.0701C133.153 8.66732 133.041 8.19611 133.041 7.65789C133.041 6.71406 133.376 5.93107 134.046 5.30891C134.713 4.68745 135.683 4.37778 136.954 4.37778C138.243 4.37778 139.242 4.68463 139.947 5.30115C140.656 5.91767 141.044 6.73734 141.113 7.75876L138.95 7.85752C138.896 7.32423 138.704 6.91581 138.379 6.63012C138.057 6.34655 137.576 6.20335 136.942 6.20335C136.318 6.20335 135.873 6.31481 135.607 6.53842C135.338 6.76203 135.205 7.0456 135.205 7.38631C135.205 7.70868 135.328 7.97179 135.571 8.18271C135.816 8.39574 136.359 8.68707 137.194 9.05952C138.458 9.61608 139.261 10.0661 139.606 10.4118C140.12 10.9218 140.376 11.5743 140.376 12.3756C140.376 13.3639 139.993 14.2068 139.226 14.9066C138.458 15.6063 137.392 15.9576 136.024 15.9576C135.079 15.9576 134.261 15.7961 133.568 15.4737C132.877 15.1514 132.389 14.7034 132.102 14.1313C131.818 13.5593 131.685 12.8983 131.706 12.1548L131.705 12.1541ZM137.537 2.67564L138.854 1.31775H140.622L138.394 3.61171H136.381L135.465 1.31775H136.957L137.537 2.67564ZM141.589 15.7538L143.891 4.58023H146.147L145.17 9.32969L150.245 4.58023H153.268L148.35 8.96288L151.964 15.7538H149.401L146.7 10.4322L144.549 12.3467L143.848 15.7538H141.59H141.589ZM153.394 11.3683C153.394 10.708 153.491 10.0104 153.685 9.27678C153.941 8.29345 154.329 7.44345 154.851 6.71971C155.373 5.99667 156.033 5.42741 156.826 5.00558C157.622 4.58657 158.525 4.37637 159.54 4.37637C160.901 4.37637 161.997 4.80525 162.834 5.66654C163.671 6.52784 164.09 7.66706 164.09 9.08703C164.09 10.2679 163.818 11.4099 163.274 12.5125C162.729 13.6178 161.987 14.4685 161.054 15.0639C160.12 15.6592 159.064 15.9562 157.882 15.9562C156.858 15.9562 155.999 15.7192 155.303 15.2459C154.61 14.7726 154.116 14.1871 153.827 13.4873C153.538 12.7876 153.392 12.08 153.392 11.3676L153.394 11.3683ZM155.634 11.3239C155.634 12.0942 155.864 12.7389 156.322 13.2567C156.783 13.7772 157.386 14.0368 158.136 14.0368C158.745 14.0368 159.33 13.8316 159.891 13.4231C160.453 13.0119 160.917 12.3904 161.285 11.558C161.65 10.7229 161.835 9.91446 161.835 9.12371C161.835 8.24196 161.603 7.54996 161.139 7.04842C160.674 6.54618 160.083 6.29647 159.364 6.29647C158.262 6.29647 157.364 6.82199 156.671 7.87021C155.98 8.92056 155.636 10.0704 155.636 11.3239H155.634ZM164.686 15.7538L166.988 4.58023H169.244L167.328 13.8816H172.927L172.543 15.7545H164.685L164.686 15.7538ZM181.207 13.2884H176.849L175.519 15.7538H173.175L179.378 4.58023H181.934L183.709 15.7538H181.566L181.208 13.2884H181.207ZM180.936 11.4156L180.284 6.92074L177.859 11.4156H180.936Z" fill="#FEFEFE"/>
<path d="M88.8027 45.772L83.5854 23.2069H88.2033L91.5039 38.7074L95.5537 23.2069H100.894L104.769 38.9698L108.147 23.2069H112.656L107.31 45.772H102.511L98.1356 28.9009L93.73 45.772H88.802H88.8027ZM114.702 27.2094V23.2069H118.948V27.2094H114.702ZM114.702 45.772V29.4151H118.948V45.772H114.702ZM132.611 40.6035L136.857 41.3286C136.314 42.9095 135.452 44.1129 134.28 44.9424C133.102 45.767 131.63 46.1818 129.868 46.1818C127.074 46.1818 125.003 45.2521 123.665 43.3927C122.606 41.9007 122.074 40.0208 122.074 37.7459C122.074 35.0358 122.771 32.9083 124.161 31.3747C125.551 29.8356 127.312 29.0688 129.44 29.0688C131.827 29.0688 133.712 29.8722 135.097 31.4798C136.476 33.0867 137.137 35.5507 137.075 38.8703H126.445C126.476 40.152 126.817 41.1502 127.473 41.864C128.124 42.5786 128.94 42.9355 129.911 42.9355C130.577 42.9355 131.136 42.7514 131.585 42.3839C132.039 42.0164 132.38 41.4225 132.613 40.6035H132.611ZM132.859 36.223C132.828 34.9673 132.513 34.0115 131.909 33.3604C131.304 32.7037 130.57 32.3778 129.703 32.3778C128.779 32.3778 128.014 32.7249 127.41 33.4126C126.805 34.1004 126.511 35.0407 126.521 36.223H132.86H132.859ZM155.179 45.772H150.933V37.4362C150.933 35.6713 150.84 34.5314 150.659 34.0165C150.473 33.4966 150.179 33.0973 149.765 32.8081C149.352 32.5196 148.856 32.3771 148.278 32.3771C147.535 32.3771 146.868 32.5817 146.279 32.9915C145.685 33.4014 145.282 33.9473 145.065 34.6196C144.843 35.2975 144.735 36.5474 144.735 38.3751V45.7706H140.489V29.4137H144.425V31.8142C145.835 29.9809 147.607 29.0667 149.75 29.0667C150.69 29.0667 151.553 29.2402 152.333 29.5816C153.118 29.9287 153.707 30.3646 154.104 30.8944C154.508 31.4305 154.786 32.0343 154.941 32.7122C155.101 33.3894 155.179 34.3565 155.179 35.617V45.7706V45.772ZM168.779 40.6035L173.026 41.3286C172.483 42.9095 171.621 44.1129 170.449 44.9424C169.271 45.767 167.799 46.1818 166.037 46.1818C163.243 46.1818 161.172 45.2521 159.834 43.3927C158.775 41.9007 158.243 40.0208 158.243 37.7459C158.243 35.0358 158.94 32.9083 160.33 31.3747C161.72 29.8356 163.481 29.0688 165.609 29.0688C167.996 29.0688 169.881 29.8722 171.266 31.4798C172.645 33.0867 173.306 35.5507 173.244 38.8703H162.614C162.645 40.152 162.986 41.1502 163.642 41.864C164.293 42.5786 165.109 42.9355 166.08 42.9355C166.746 42.9355 167.305 42.7514 167.754 42.3839C168.208 42.0164 168.549 41.4225 168.782 40.6035H168.779ZM169.028 36.223C168.997 34.9673 168.682 34.0115 168.077 33.3604C167.473 32.7037 166.739 32.3778 165.872 32.3778C164.948 32.3778 164.183 32.7249 163.579 33.4126C162.974 34.1004 162.68 35.0407 162.69 36.223H169.029H169.028ZM180.779 45.772H176.533V29.4151H180.469V31.7366C181.145 30.639 181.755 29.9195 182.297 29.5781C182.84 29.2367 183.454 29.0688 184.141 29.0688C185.112 29.0688 186.048 29.3418 186.946 29.8828L185.629 33.6546C184.911 33.182 184.245 32.9457 183.629 32.9457C183.03 32.9457 182.524 33.1136 182.111 33.4444C181.697 33.7802 181.372 34.379 181.134 35.2509C180.897 36.1228 180.778 37.9505 180.778 40.7298V45.772H180.779Z" fill="#FEFEFE"/>
<path d="M192.818 45.724H191.732L191.828 45.2626C191.621 45.4665 191.417 45.6118 191.216 45.7C191.015 45.7875 190.789 45.8319 190.536 45.8319C190.097 45.8319 189.741 45.6795 189.469 45.3734C189.197 45.0687 189.061 44.6172 189.061 44.019C189.061 43.3263 189.256 42.702 189.644 42.1427C190.032 41.5833 190.545 41.3032 191.184 41.3032C191.761 41.3032 192.195 41.5346 192.484 41.9988L192.959 39.7739H194.101L192.819 45.724H192.818ZM190.172 43.9732C190.172 44.2821 190.249 44.5248 190.403 44.699C190.559 44.8726 190.749 44.9593 190.975 44.9593C191.185 44.9593 191.381 44.8874 191.562 44.7421C191.744 44.5968 191.888 44.3738 191.997 44.0748C192.106 43.7771 192.16 43.49 192.16 43.2149C192.16 42.9031 192.077 42.6498 191.911 42.4573C191.743 42.2647 191.552 42.1681 191.333 42.1681C190.994 42.1681 190.715 42.3578 190.497 42.7387C190.279 43.1196 190.17 43.5309 190.17 43.9739L190.172 43.9732ZM194.159 44.6024H195.294L195.074 45.724H193.938L194.159 44.6024ZM196.339 43.9344C196.339 43.1323 196.56 42.4939 197.002 42.0178C197.445 41.541 198.027 41.3032 198.747 41.3032C199.371 41.3032 199.858 41.4789 200.21 41.8309C200.56 42.1829 200.736 42.6548 200.736 43.2508C200.736 43.9499 200.517 44.5572 200.078 45.0665C199.64 45.5773 199.052 45.8326 198.317 45.8326C197.918 45.8326 197.563 45.7508 197.256 45.5885C196.948 45.4256 196.718 45.1935 196.567 44.8958C196.415 44.5968 196.339 44.2765 196.339 43.9344ZM199.6 43.0964C199.6 42.8177 199.521 42.5955 199.363 42.4276C199.205 42.2598 199.002 42.1758 198.753 42.1758C198.506 42.1758 198.287 42.2548 198.096 42.4114C197.905 42.568 197.757 42.7966 197.651 43.0942C197.545 43.3933 197.491 43.6691 197.491 43.9196C197.491 44.2314 197.573 44.4775 197.738 44.6609C197.903 44.8436 198.109 44.9353 198.359 44.9353C198.673 44.9353 198.933 44.7971 199.146 44.5213C199.449 44.1319 199.6 43.6572 199.6 43.0971V43.0964ZM201.421 44.6024H202.557L202.336 45.724H201.2L201.421 44.6024ZM203.601 43.9344C203.601 43.1323 203.822 42.4939 204.264 42.0178C204.707 41.541 205.289 41.3032 206.009 41.3032C206.633 41.3032 207.12 41.4789 207.472 41.8309C207.822 42.1829 207.998 42.6548 207.998 43.2508C207.998 43.9499 207.779 44.5572 207.34 45.0665C206.902 45.5773 206.314 45.8326 205.579 45.8326C205.18 45.8326 204.826 45.7508 204.518 45.5885C204.21 45.4256 203.98 45.1935 203.829 44.8958C203.678 44.5968 203.601 44.2765 203.601 43.9344ZM206.862 43.0964C206.862 42.8177 206.783 42.5955 206.625 42.4276C206.467 42.2598 206.264 42.1758 206.015 42.1758C205.768 42.1758 205.549 42.2548 205.358 42.4114C205.168 42.568 205.019 42.7966 204.913 43.0942C204.807 43.3933 204.754 43.6691 204.754 43.9196C204.754 44.2314 204.835 44.4775 205 44.6609C205.165 44.8436 205.372 44.9353 205.621 44.9353C205.935 44.9353 206.196 44.7971 206.409 44.5213C206.711 44.1319 206.862 43.6572 206.862 43.0971V43.0964Z" fill="#FEFEFE"/>
</svg>
