<svg width="158" height="37" viewBox="0 0 158 37" fill="none" xmlns="http://www.w3.org/2000/svg">
<path fill-rule="evenodd" clip-rule="evenodd" d="M1.36425 8.36176C0.853119 12.0585 1.89699 13.6998 3.29023 16.1812C4.01846 17.4774 4.65712 18.2239 5.29946 19.1503C6.48929 20.8677 8.40947 22.6574 9.97976 24.0329C11.8789 25.6961 16.2809 28.6443 18.5547 29.8248C20.7758 30.9784 24.3042 32.2687 25.1936 32.7403C26.5537 33.4615 31.7335 34.6286 32.3506 35.0776C29.0862 35.4607 13.6009 33.6373 9.90072 32.8233C8.51064 32.5174 4.24874 31.9135 3.55317 30.8804C3.60587 30.7207 3.3308 30.3402 4.79254 30.022C6.22003 29.7117 9.92074 29.4079 10.3544 29.0933C8.79625 29.0371 3.63959 29.425 2.034 29.8178C1.67726 29.9051 1.27046 30.0295 0.93743 30.1313C0.160717 30.3681 0.226058 30.2958 0 30.8638C0.262944 31.7329 0.508499 31.5646 1.3827 31.8443C9.17406 34.3371 16.8432 34.6634 24.9233 35.3637C32.3996 36.0116 49.7302 37.7498 54.7598 31.4596C59.5814 25.4298 51.8638 15.1953 49.6311 14.1279C49.9304 14.7522 52.9545 17.4555 53.863 21.3323C54.656 24.7166 54.0848 27.803 51.5539 29.4336C48.7369 31.2485 46.802 31.9204 43.2446 32.4096C41.1083 32.7038 34.9321 32.6347 33.3892 31.922C26.941 30.5085 18.9599 26.7405 13.7701 22.5229C12.4379 21.4405 11.4931 20.3978 10.2079 19.3438C8.66978 17.8043 6.74486 15.5125 5.75632 13.5369C5.6014 13.2266 5.42856 12.7744 5.0402 11.7027C4.56069 10.3776 4.5512 8.66826 4.89582 7.19738C5.54027 4.44639 7.5495 2.77028 9.82905 1.80953C14.3708 -0.103417 16.1097 0.664975 17.9092 0C11.6033 0.00589422 3.06101 0.830549 1.36531 8.36176H1.36425Z" fill="#FEFEFE" fill-opacity="0.22"/>
<path fill-rule="evenodd" clip-rule="evenodd" d="M37.9847 31.1857C39.7915 32.027 44.9082 30.7458 46.5712 30.0219C55.0729 26.3214 53.6043 20.2836 48.5967 14.4633L45.9536 11.895L45.5183 13.6665C45.2849 15.2038 46.1048 15.0897 47.8901 17.8669C48.5741 18.9311 49.0309 19.5591 49.3492 20.8569C49.6401 22.0417 49.9473 23.766 49.4968 25.022C48.3101 28.3319 45.0288 29.7642 41.8292 30.5304C40.9735 30.7351 38.4858 30.8894 37.9841 31.1857H37.9847Z" fill="#FEFEFE" fill-opacity="0.22"/>
<path fill-rule="evenodd" clip-rule="evenodd" d="M8.85372 15.6352C9.21941 14.7715 5.72631 8.83222 11.2629 5.43822C12.6846 4.70787 13.26 4.52408 14.6754 3.96788L14.238 1.50463C12.0818 1.47891 8.31149 3.55207 6.81181 6.26716C5.31161 8.98386 6.88348 14.7913 8.85319 15.6347L8.85372 15.6352Z" fill="#FEFEFE" fill-opacity="0.22"/>
<path d="M46.5011 1.62036L41.3971 23.87H34.2871L31.4252 10.2361L28.5044 23.87H21.3944L16.3494 1.62036H22.6042L25.0234 16.8323L28.2984 1.62036H34.6412L37.8276 16.7058L40.2468 1.62036H46.5011Z" fill="#FEFEFE" fill-opacity="0.22"/>
<path d="M69.2097 10.0942H65.8989L64.8888 11.9669H63.1088L67.8207 3.47923H69.7619L71.1104 11.9669H69.4821L69.2102 10.0942H69.2097ZM69.0037 8.6715L68.5083 5.25714L66.6662 8.6715H69.0037ZM73.9833 3.47923H75.6932L74.7025 8.09655L74.4523 9.22663C74.4385 9.32308 74.4212 9.44793 74.398 9.59797C74.398 9.90607 74.5281 10.1611 74.7905 10.3626C75.053 10.5625 75.4339 10.6627 75.933 10.6627C76.3819 10.6627 76.7529 10.5839 77.0464 10.4237C77.3399 10.2656 77.567 10.0282 77.7282 9.71639C77.8874 9.40239 78.0507 8.86869 78.2157 8.11798L79.1715 3.47869H80.8852L79.8961 8.2857C79.6879 9.22395 79.4471 9.94144 79.1773 10.4392C78.9054 10.937 78.4934 11.34 77.9438 11.6524C77.3942 11.9648 76.6965 12.1207 75.855 12.1207C74.8485 12.1207 74.0771 11.878 73.5427 11.3914C73.0063 10.9054 72.7402 10.2812 72.7402 9.51866C72.7481 9.36273 72.7671 9.19073 72.7966 9.00694C72.814 8.88423 72.882 8.53272 73.0026 7.95402L73.9838 3.47869L73.9833 3.47923ZM84.2033 11.9669H82.4876L83.943 4.90134H81.4927L81.7725 3.47869H88.3477L88.0679 4.90134H85.6582L84.2028 11.9669H84.2033ZM88.0194 8.6356C88.0194 8.13406 88.0932 7.60411 88.2407 7.04684C88.4352 6.29988 88.7303 5.6542 89.1265 5.10443C89.5233 4.55519 90.0244 4.12277 90.6267 3.80234C91.2311 3.48405 91.9172 3.32437 92.6881 3.32437C93.722 3.32437 94.5551 3.65016 95.1906 4.30442C95.8261 4.95868 96.1444 5.82406 96.1444 6.9027C96.1444 7.79969 95.9383 8.66722 95.5247 9.50473C95.111 10.3444 94.5472 10.9906 93.8385 11.4429C93.1292 11.8951 92.3267 12.1207 91.4287 12.1207C90.6515 12.1207 89.9986 11.9407 89.4701 11.5811C88.9437 11.2216 88.5685 10.7768 88.3488 10.2453C88.129 9.71371 88.0184 9.17626 88.0184 8.63507L88.0194 8.6356ZM89.7215 8.60184C89.7215 9.18698 89.8964 9.67674 90.2442 10.07C90.5941 10.4655 91.0525 10.6627 91.6216 10.6627C92.0843 10.6627 92.529 10.5067 92.9548 10.1965C93.3821 9.8841 93.7341 9.41203 94.0139 8.77974C94.2916 8.14531 94.4318 7.53124 94.4318 6.93056C94.4318 6.26077 94.2553 5.73511 93.9033 5.35413C93.5497 4.97261 93.1007 4.78292 92.5548 4.78292C91.7175 4.78292 91.0356 5.18212 90.5092 5.97838C89.9844 6.77624 89.7225 7.64966 89.7225 8.60184H89.7215ZM100.046 9.23253L101.678 9.14572C101.701 9.67299 101.791 10.0288 101.947 10.2126C102.197 10.5126 102.659 10.6632 103.336 10.6632C103.897 10.6632 104.305 10.5603 104.555 10.3551C104.806 10.1493 104.931 9.90286 104.931 9.61243C104.931 9.36166 104.828 9.1484 104.624 8.97425C104.48 8.84565 104.084 8.63828 103.437 8.35375C102.79 8.06761 102.317 7.82809 102.02 7.6368C101.721 7.44497 101.488 7.19634 101.317 6.88984C101.146 6.58388 101.061 6.22594 101.061 5.81709C101.061 5.10014 101.315 4.50536 101.824 4.03275C102.331 3.56068 103.068 3.32544 104.034 3.32544C105.013 3.32544 105.771 3.55853 106.307 4.02686C106.845 4.49518 107.141 5.11782 107.193 5.89372L105.549 5.96873C105.509 5.56364 105.363 5.25339 105.116 5.03638C104.871 4.82097 104.506 4.71219 104.024 4.71219C103.551 4.71219 103.212 4.79686 103.01 4.96672C102.806 5.13658 102.705 5.35198 102.705 5.61079C102.705 5.85567 102.798 6.05554 102.982 6.21576C103.169 6.37758 103.581 6.59888 104.216 6.8818C105.176 7.30458 105.786 7.64644 106.048 7.90901C106.439 8.29642 106.633 8.79207 106.633 9.40078C106.633 10.1515 106.342 10.7918 105.759 11.3234C105.176 11.8549 104.366 12.1218 103.327 12.1218C102.609 12.1218 101.988 11.9991 101.461 11.7542C100.936 11.5093 100.565 11.169 100.348 10.7345C100.132 10.2999 100.031 9.79784 100.047 9.23306L100.046 9.23253ZM104.476 2.03247L105.477 1.00098H106.82L105.127 2.74352H103.598L102.902 1.00098H104.035L104.476 2.03247ZM107.554 11.9669L109.303 3.47923H111.017L110.274 7.08703L114.129 3.47923H116.426L112.69 6.80839L115.435 11.9669H113.488L111.437 7.92454L109.803 9.37881L109.27 11.9669H107.555H107.554ZM116.521 8.6356C116.521 8.13406 116.595 7.60411 116.743 7.04684C116.937 6.29988 117.232 5.6542 117.628 5.10443C118.025 4.55519 118.526 4.12277 119.129 3.80234C119.733 3.48405 120.419 3.32437 121.19 3.32437C122.224 3.32437 123.057 3.65016 123.692 4.30442C124.328 4.95868 124.646 5.82406 124.646 6.9027C124.646 7.79969 124.44 8.66722 124.026 9.50473C123.613 10.3444 123.049 10.9906 122.34 11.4429C121.631 11.8951 120.828 12.1207 119.931 12.1207C119.153 12.1207 118.5 11.9407 117.972 11.5811C117.445 11.2216 117.07 10.7768 116.851 10.2453C116.631 9.71371 116.52 9.17626 116.52 8.63507L116.521 8.6356ZM118.223 8.60184C118.223 9.18698 118.398 9.67674 118.746 10.07C119.096 10.4655 119.554 10.6627 120.123 10.6627C120.586 10.6627 121.031 10.5067 121.457 10.1965C121.884 9.8841 122.236 9.41203 122.516 8.77974C122.793 8.14531 122.934 7.53124 122.934 6.93056C122.934 6.26077 122.757 5.73511 122.405 5.35413C122.051 4.97261 121.603 4.78292 121.057 4.78292C120.219 4.78292 119.537 5.18212 119.011 5.97838C118.486 6.77624 118.224 7.64966 118.224 8.60184H118.223ZM125.099 11.9669L126.848 3.47923H128.562L127.106 10.5448H131.359L131.068 11.9674H125.099L125.099 11.9669ZM137.649 10.0942H134.338L133.328 11.9669H131.548L136.26 3.47923H138.201L139.55 11.9669H137.921L137.649 10.0942H137.649ZM137.443 8.6715L136.948 5.25714L135.105 8.6715H137.443Z" fill="#FEFEFE" fill-opacity="0.22"/>
<path d="M67.4565 34.7694L63.4934 17.6284H67.0013L69.5084 29.4029L72.5847 17.6284H76.6417L79.5846 29.6023L82.1508 17.6284H85.576L81.5148 34.7694H77.8694L74.546 21.9537L71.1994 34.7694H67.456H67.4565ZM87.1305 20.6688V17.6284H90.3559V20.6688H87.1305ZM87.1305 34.7694V22.3443H90.3559V34.7694H87.1305ZM100.734 30.8433L103.959 31.3941C103.547 32.5949 102.892 33.5091 102.002 34.1392C101.107 34.7656 99.9889 35.0807 98.651 35.0807C96.5285 35.0807 94.955 34.3744 93.9385 32.962C93.1344 31.8287 92.7303 30.4007 92.7303 28.6726C92.7303 26.6139 93.2598 24.9978 94.3158 23.8329C95.3713 22.6637 96.7092 22.0812 98.3259 22.0812C100.139 22.0812 101.571 22.6916 102.623 23.9127C103.67 25.1334 104.172 27.0051 104.125 29.5267H96.0505C96.0742 30.5003 96.333 31.2585 96.8315 31.8008C97.3257 32.3436 97.9459 32.6147 98.6837 32.6147C99.1895 32.6147 99.6137 32.4749 99.9546 32.1957C100.3 31.9165 100.559 31.4654 100.736 30.8433H100.734ZM100.923 27.5157C100.899 26.5619 100.66 25.8359 100.201 25.3413C99.7418 24.8424 99.1843 24.5949 98.5256 24.5949C97.8232 24.5949 97.2425 24.8585 96.7835 25.3809C96.324 25.9034 96.1006 26.6176 96.1085 27.5157H100.923H100.923ZM117.878 34.7694H114.652V28.4374C114.652 27.0967 114.582 26.2308 114.444 25.8396C114.303 25.4447 114.079 25.1414 113.765 24.9217C113.451 24.7026 113.074 24.5943 112.636 24.5943C112.071 24.5943 111.564 24.7497 111.117 25.061C110.666 25.3724 110.36 25.7871 110.195 26.2977C110.026 26.8127 109.944 27.7622 109.944 29.1506V34.7683H106.718V22.3433H109.708V24.1667C110.78 22.7741 112.125 22.0796 113.754 22.0796C114.468 22.0796 115.123 22.2114 115.715 22.4708C116.312 22.7344 116.759 23.0656 117.061 23.468C117.367 23.8752 117.579 24.3339 117.697 24.8488C117.819 25.3632 117.878 26.0979 117.878 27.0554V34.7683V34.7694ZM128.209 30.8433L131.434 31.3941C131.022 32.5949 130.367 33.5091 129.477 34.1392C128.582 34.7656 127.464 35.0807 126.126 35.0807C124.003 35.0807 122.43 34.3744 121.413 32.962C120.609 31.8287 120.205 30.4007 120.205 28.6726C120.205 26.6139 120.735 24.9978 121.791 23.8329C122.846 22.6637 124.184 22.0812 125.801 22.0812C127.613 22.0812 129.046 22.6916 130.097 23.9127C131.145 25.1334 131.647 27.0051 131.6 29.5267H123.525C123.549 30.5003 123.808 31.2585 124.306 31.8008C124.801 32.3436 125.421 32.6147 126.158 32.6147C126.664 32.6147 127.088 32.4749 127.429 32.1957C127.775 31.9165 128.034 31.4654 128.21 30.8433H128.209ZM128.397 27.5157C128.374 26.5619 128.134 25.8359 127.675 25.3413C127.217 24.8424 126.659 24.5949 126 24.5949C125.298 24.5949 124.717 24.8585 124.258 25.3809C123.799 25.9034 123.575 26.6176 123.583 27.5157H128.398H128.397ZM137.324 34.7694H134.098V22.3443H137.088V24.1078C137.602 23.274 138.065 22.7275 138.477 22.4681C138.889 22.2088 139.356 22.0812 139.878 22.0812C140.616 22.0812 141.326 22.2886 142.008 22.6996L141.008 25.5647C140.462 25.2057 139.956 25.0262 139.489 25.0262C139.034 25.0262 138.65 25.1537 138.336 25.405C138.021 25.6601 137.774 26.115 137.594 26.7773C137.413 27.4396 137.323 28.828 137.323 30.9392V34.7694H137.324Z" fill="#FEFEFE" fill-opacity="0.22"/>
<path d="M146.469 34.7329H145.644L145.717 34.3825C145.56 34.5374 145.404 34.6477 145.252 34.7147C145.099 34.7812 144.928 34.8149 144.735 34.8149C144.402 34.8149 144.132 34.6992 143.925 34.4666C143.718 34.2351 143.615 33.8922 143.615 33.4378C143.615 32.9116 143.763 32.4374 144.058 32.0125C144.353 31.5876 144.743 31.3748 145.228 31.3748C145.666 31.3748 145.996 31.5506 146.215 31.9032L146.576 30.2131H147.444L146.469 34.7329H146.469ZM144.459 33.403C144.459 33.6377 144.518 33.822 144.635 33.9544C144.753 34.0862 144.898 34.1521 145.069 34.1521C145.228 34.1521 145.377 34.0974 145.515 33.987C145.653 33.8767 145.763 33.7073 145.846 33.4801C145.928 33.254 145.969 33.0359 145.969 32.827C145.969 32.5901 145.906 32.3977 145.78 32.2515C145.653 32.1052 145.507 32.0318 145.341 32.0318C145.084 32.0318 144.872 32.1759 144.706 32.4653C144.54 32.7546 144.458 33.067 144.458 33.4035L144.459 33.403ZM147.487 33.8809H148.35L148.183 34.7329H147.32L147.487 33.8809ZM149.144 33.3735C149.144 32.7643 149.311 32.2793 149.647 31.9176C149.984 31.5554 150.426 31.3748 150.973 31.3748C151.446 31.3748 151.817 31.5083 152.084 31.7756C152.35 32.043 152.483 32.4015 152.483 32.8543C152.483 33.3853 152.317 33.8467 151.984 34.2335C151.651 34.6215 151.205 34.8155 150.646 34.8155C150.343 34.8155 150.074 34.7533 149.84 34.6301C149.606 34.5063 149.431 34.33 149.317 34.1039C149.202 33.8767 149.144 33.6334 149.144 33.3735ZM151.621 32.7369C151.621 32.5253 151.561 32.3565 151.441 32.229C151.32 32.1014 151.167 32.0377 150.977 32.0377C150.79 32.0377 150.623 32.0977 150.478 32.2166C150.334 32.3356 150.221 32.5092 150.14 32.7353C150.059 32.9625 150.019 33.172 150.019 33.3623C150.019 33.5991 150.081 33.7861 150.206 33.9254C150.331 34.0642 150.488 34.1339 150.678 34.1339C150.916 34.1339 151.114 34.0288 151.276 33.8193C151.506 33.5235 151.621 33.1629 151.621 32.7375V32.7369ZM153.004 33.8809H153.867L153.699 34.7329H152.836L153.004 33.8809ZM154.66 33.3735C154.66 32.7643 154.828 32.2793 155.164 31.9176C155.5 31.5554 155.942 31.3748 156.489 31.3748C156.963 31.3748 157.333 31.5083 157.601 31.7756C157.867 32.043 158 32.4015 158 32.8543C158 33.3853 157.833 33.8467 157.5 34.2335C157.167 34.6215 156.721 34.8155 156.163 34.8155C155.86 34.8155 155.59 34.7533 155.357 34.6301C155.123 34.5063 154.948 34.33 154.833 34.1039C154.718 33.8767 154.66 33.6334 154.66 33.3735ZM157.137 32.7369C157.137 32.5253 157.077 32.3565 156.957 32.229C156.837 32.1014 156.683 32.0377 156.494 32.0377C156.306 32.0377 156.14 32.0977 155.995 32.2166C155.85 32.3356 155.737 32.5092 155.657 32.7353C155.576 32.9625 155.535 33.172 155.535 33.3623C155.535 33.5991 155.598 33.7861 155.723 33.9254C155.848 34.0642 156.005 34.1339 156.195 34.1339C156.433 34.1339 156.631 34.0288 156.793 33.8193C157.023 33.5235 157.137 33.1629 157.137 32.7375V32.7369Z" fill="#FEFEFE" fill-opacity="0.22"/>
</svg>
